# AST/ASF file generated using VICON BodyLanguage
# -----------------------------------------------
:version 1.10
:name VICON
:units
  mass 1.0
  length 0.45
  angle deg
:documentation
   .ast/.asf automatically generated from VICON data using
   VICON BodyBuilder and BodyLanguage model FoxedUp or BRILLIANT.MOD
:root
   order TX TY TZ RX RY RZ
   axis XYZ
   position 0 0 0  
   orientation 0 0 0 
:bonedata
  begin
     id 1 
     name lhipjoint
     direction 0.547975 -0.797114 0.253638 
     length 2.36201 
     axis 0 0 0  XYZ
  end
  begin
     id 2 
     name lfemur
     direction 0.34202 -0.939693 0  
     length 7.69075  
     axis 0 0 20  XYZ
    dof rx ry rz
    limits (-160.0 20.0)
           (-70.0 70.0)
           (-60.0 70.0)
  end
  begin
     id 3 
     name ltibia
     direction 0.34202 -0.939693 0   
     length 7.91399   
     axis 0 0 20   XYZ
    dof rx
    limits (-10.0 170.0)
  end
  begin
     id 4 
     name lfoot
     direction 0.0705293 -0.193778 0.978507   
     length 2.13618   
     axis -90 7.62852e-016 20   XYZ
    dof rx rz
    limits (-45.0 90.0)
           (-70.0 20.0)
  end
  begin
     id 5 
     name ltoes
     direction 1.53592e-011 -4.21925e-011 1   
     length 1.07518   
     axis -90 7.62852e-016 20   XYZ
    dof rx
    limits (-90.0 20.0)
  end
  begin
     id 6 
     name rhipjoint
     direction -0.57 -0.782963 0.249136   
     length 2.4047  
     axis 0 0 0  XYZ 
  end
  begin
     id 7 
     name rfemur
     direction -0.34202 -0.939693 0   
     length 7.51486   
     axis 0 0 -20   XYZ
    dof rx ry rz
    limits (-160.0 20.0)
           (-70.0 70.0)
           (-70.0 60.0)
  end
  begin
     id 8 
     name rtibia
     direction -0.34202 -0.939693 0   
     length 8.08317   
     axis 0 0 -20   XYZ
    dof rx
    limits (-10.0 170.0)
 end
 begin
     id 9 
     name rfoot
     direction -0.104954 -0.281256 0.953876   
     length 2.30343  
     axis -90 -7.62852e-016 -20   XYZ
    dof rx rz
    limits (-45.0 90.0)
           (-20.0 70.0)
  end
  begin
     id 10 
     name rtoes
     direction -1.53556e-011 -4.21922e-011 1   
     length 1.14803   
     axis -90 -7.62852e-016 -20   XYZ
    dof rx
    limits (-90.0 20.0)
  end
  begin
     id 11 
     name lowerback
     direction -0.0152855 0.99353 -0.11254   
     length 2.05311   
     axis 0 0 0   XYZ
    dof rx ry rz
    limits (-20.0 45.0)
           (-30.0 30.0)
           (-30.0 30.0)
  end
  begin
     id 12 
     name upperback
     direction -0.00157509 0.999443 -0.033332   
     length 2.06353   
     axis 0 0 0   XYZ
    dof rx ry rz
    limits (-20.0 45.0)
           (-30.0 30.0)
           (-30.0 30.0)
  end
  begin
     id 13 
     name thorax
     direction 0.00577788 0.999804 0.0189484   
     length 2.08472   
     axis 0 0 0   XYZ
    dof rx ry rz
    limits (-20.0 45.0)
           (-30.0 30.0)
           (-30.0 30.0)
  end
  begin
     id 14 
     name lowerneck
     direction -1.09301e-005 0.994719 0.10264   
     length 1.76249   
     axis 0 0 0   XYZ
    dof rx ry rz
    limits (-20.0 45.0)
           (-30.0 30.0)
           (-30.0 30.0)
  end
  begin
     id 15 
     name upperneck
     direction 0.0495018 0.988526 -0.142706   
     length 1.77897   
     axis 0 0 0   XYZ
    dof rx ry rz
    limits (-20.0 45.0)
           (-30.0 30.0)
           (-30.0 30.0)
  end
  begin
     id 16
     name head
     direction 0.0142736 0.998114 -0.0597101  
     length 1.78934  
     axis 0 0 0   XYZ
    dof rx ry rz
    limits (-20.0 45.0)
           (-30.0 30.0)
           (-30.0 30.0)
  end
  begin
     id 17 
     name lclavicle
     direction 0.918111 0.396107 -0.0130883  
     length 3.37276  
     axis 0 0 0   XYZ
    dof ry rz
    limits (-20.0 10.0)
           (0.0 20.0)
  end
  begin
     id 18 
     name lhumerus
     direction 1 -4.48975e-011 -3.26108e-027   
     length 5.34298   
     axis 180 -30 -90   XYZ
    dof rx ry rz
    limits (-60.0 90.0)
           (-90.0 90.0)
           (-90.0 90.0)
  end
  begin
     id 19
     name lradius
     direction 1 -4.48964e-011 -8.84413e-028   
     length 3.67262   
     axis 180 -30 -90   XYZ
    dof rx
    limits (-10.0 170.0)
  end
  begin
     id 20
     name lwrist
     direction 1 -4.48991e-011 -1.24264e-027   
     length 1.83631   
     axis -2.17013e-015 90 90   XYZ
    dof ry
    limits (-180.0 0.0)
 end
  begin
     id 21 
     name lhand
     direction 1 -4.48855e-011 -2.48528e-027   
     length 0.599298   
     axis 1.58582e-015 90 90   XYZ
    dof rx rz
    limits (-90.0 90.0)
           (-45.0 45.0)
  end
  begin
     id 22 
     name lfingers
     direction 1 -4.48811e-011 -4.97056e-027   
     length 0.48317   
     axis 3.17164e-015 90 90   XYZ
    dof rx
    limits (0.0 90.0)
  end
  begin
     id 23
     name lthumb
     direction 0.707107 -6.34882e-011 0.707107   
     length 0.693738   
     axis -90 45 2.85299e-015   XYZ
    dof rx rz
    limits (-45.0 45.0)
           (-45.0 45.0)
  end
  begin
     id 24 
     name rclavicle
     direction -0.920511 0.384752 -0.0680135   
     length 3.43787  
     axis 0 0 0   XYZ 
    dof ry rz
    limits (-10.0 20.0)
           (-20.0 0.0)
  end
  begin
     id 25 
     name rhumerus
     direction -0.999976 -0.00330524 0.00603274  
     length 5.5498   
     axis 180 30 90   XYZ
    dof rx ry rz
    limits (-90.0 60.0)
           (-90.0 90.0)
           (-90.0 90.0)
  end
  begin
     id 26 
     name rradius
     direction -1 -4.48967e-011 8.62438e-027   
     length 3.69401   
     axis 180 30 90   XYZ
    dof rx
    limits (-10.0 170.0)
  end
  begin
     id 27 
     name rwrist
     direction -1 -4.4897e-011 9.54866e-027   
     length 1.84701   
     axis -7.69462e-015 -90 -90   XYZ
    dof ry
    limits (-180.0 0.0)
  end
  begin
     id 28
     name rhand
     direction -1 -4.48982e-011 1.90973e-026   
     length 0.638113   
     axis -1.21857e-014 -90 -90   XYZ
    dof rx rz
    limits (-90.0 90.0)
           (-45.0 45.0)
  end
  begin
     id 29
     name rfingers
     direction -1 -4.48936e-011 3.81946e-026   
     length 0.514463   
     axis -2.43714e-014 -90 -90   XYZ
    dof rx
    limits (0.0 90.0)
  end
  begin
     id 30
     name rthumb
     direction -0.707107 -6.34942e-011 0.707107   
     length 0.738669   
     axis -90 -45 -2.85299e-015   XYZ
    dof rx rz
    limits (-45.0 45.0)
           (-45.0 45.0)
  end
:hierarchy
  begin
    root lhipjoint rhipjoint lowerback
    lhipjoint lfemur
    lfemur ltibia
    ltibia lfoot
    lfoot ltoes
    rhipjoint rfemur
    rfemur rtibia
    rtibia rfoot
    rfoot rtoes
    lowerback upperback
    upperback thorax
    thorax lowerneck lclavicle rclavicle
    lowerneck upperneck
    upperneck head
    lclavicle lhumerus
    lhumerus lradius
    lradius lwrist
    lwrist lhand lthumb
    lhand lfingers
    rclavicle rhumerus
    rhumerus rradius
    rradius rwrist
    rwrist rhand rthumb
    rhand rfingers
  end

#!OML:ASF F:\twosubjects\two\Thursday\Session 1\Rory.ASF
:FULLY-SPECIFIED
:DEGREES
169
root 7.49773 10.3103 12.3699 152.701 -10.0449 186.865
lowerback 34.3993 8.73069 0.100107
upperback 16.0698 5.53084 -3.953
thorax 0.596779 0.67351 -5.82827
lowerneck -7.11018 -11.1705 -5.5381
upperneck -12.1885 -15.0447 19.5483
head -0.402843 -8.43761 6.31082
rclavicle -3.18055e-014 -3.18055e-015
rhumerus -10.2356 18.829 -71.4784
rradius 65.8601
rwrist 14.1035
rhand -28.4935 32.5864
rfingers 7.12502
rthumb -1.86252 2.61473
lclavicle -3.18055e-014 -3.18055e-015
lhumerus 12.424 -39.9328 35.7986
lradius 89.4766
lwrist -14.9794
lhand -15.7856 18.7816
lfingers 7.12502
lthumb 10.4069 48.5041
rfemur -50.7382 -9.66769 -8.1078
rtibia 77.3798
rfoot 14.0512 -1.34922
rtoes -18.3445
lfemur -58.48 23.9862 5.15401
ltibia 66.2726
lfoot 26.7051 -2.88116
ltoes 14.9783
170
root 7.50574 10.2988 12.3824 152.441 -10.4027 186
lowerback 34.6085 9.13256 -0.623809
upperback 16.1892 5.69963 -4.09548
thorax 0.61627 0.675518 -5.66203
lowerneck -6.88377 -11.2665 -5.24181
upperneck -12.3365 -15.1747 19.3383
head -0.512744 -8.52201 6.21923
rclavicle 1.59028e-014 1.145e-013
rhumerus -10.2226 18.2318 -71.5056
rradius 65.5666
rwrist 14.3979
rhand -29.0049 32.0456
rfingers 7.12502
rthumb -2.35642 2.07887
lclavicle 1.59028e-014 1.145e-013
lhumerus 13.0291 -40.3029 35.2609
lradius 89.0618
lwrist -14.6534
lhand -16.5234 18.6274
lfingers 7.12502
lthumb 9.69519 48.3843
rfemur -50.6135 -9.82506 -9.0528
rtibia 77.4997
rfoot 14.314 -1.37606
rtoes -18.1589
lfemur -57.9689 23.8391 4.32118
ltibia 66.1829
lfoot 26.6457 -2.44925
ltoes 16.2822
171
root 7.51198 10.2957 12.3905 152.059 -10.4669 185.753
lowerback 34.9089 9.32472 -0.567915
upperback 16.2116 5.87175 -4.27726
thorax 0.575795 0.747524 -5.94773
lowerneck -6.6847 -11.3631 -4.87998
upperneck -12.3216 -15.3232 19.3674
head -0.550036 -8.6166 6.1764
rclavicle 4.13472e-014 -1.46306e-013
rhumerus -10.3217 17.4835 -71.9076
rradius 65.0918
rwrist 14.7864
rhand -29.1983 32.2994
rfingers 7.12502
rthumb -2.54318 2.33479
lclavicle 4.13472e-014 -1.46306e-013
lhumerus 13.8011 -40.7695 34.3876
lradius 88.8875
lwrist -13.9417
lhand -16.7189 18.6039
lfingers 7.12502
lthumb 9.5066 48.3695
rfemur -50.3407 -9.74027 -9.28961
rtibia 77.6215
rfoot 14.4507 -2.24495
rtoes -14.7211
lfemur -57.437 23.9215 4.17597
ltibia 66.0791
lfoot 26.6312 -2.3674
ltoes 16.9334
172
root 7.5124 10.294 12.3954 151.659 -10.1082 186.506
lowerback 35.048 9.16965 0.611826
upperback 16.1839 6.04463 -4.38418
thorax 0.641991 0.92376 -6.72964
lowerneck -6.48669 -11.4491 -4.1396
upperneck -12.4195 -15.4838 19.3047
head -0.66072 -8.74409 6.0593
rclavicle -2.22639e-014 6.99722e-014
rhumerus -10.5597 16.5661 -72.5441
rradius 64.8154
rwrist 15.1051
rhand -29.1419 32.8017
rfingers 7.12502
rthumb -2.48871 2.83648
lclavicle -2.22639e-014 6.99722e-014
lhumerus 14.7834 -41.1209 33.3287
lradius 88.7234
lwrist -12.9934
lhand -16.0095 18.3626
lfingers 7.12502
lthumb 10.191 48.0958
rfemur -50.1352 -9.54417 -8.31241
rtibia 77.6869
rfoot 14.6747 -2.87722
rtoes -13.9015
lfemur -57.185 24.1134 5.1071
ltibia 65.9916
lfoot 26.7509 -2.59552
ltoes 17.2679
173
root 7.51052 10.289 12.4023 151.442 -9.73726 187.416
lowerback 34.8825 8.94698 1.84364
upperback 16.1004 6.23663 -4.38409
thorax 0.76147 1.13812 -7.41922
lowerneck -6.08449 -11.5485 -3.57268
upperneck -12.5187 -15.6288 19.2387
head -0.793548 -8.85698 5.98285
rclavicle -1.27222e-014 -4.45278e-014
rhumerus -11.0091 15.7766 -73.0427
rradius 64.8481
rwrist 15.2204
rhand -29.2573 32.6067
rfingers 7.12502
rthumb -2.60018 2.64276
lclavicle -1.27222e-014 -4.45278e-014
lhumerus 15.6341 -41.5356 32.3976
lradius 88.7079
lwrist -11.9689
lhand -15.1599 18.3218
lfingers 7.12502
lthumb 11.0106 48.0131
rfemur -50.1805 -9.45753 -7.18479
rtibia 77.747
rfoot 15.138 -2.62862
rtoes -16.5999
lfemur -57.2147 24.1696 6.14942
ltibia 65.9112
lfoot 26.9633 -2.66379
ltoes 17.6152
174
root 7.51298 10.2919 12.4163 151.429 -9.70777 187.496
lowerback 34.769 8.9834 2.09639
upperback 15.8941 6.45127 -4.47345
thorax 0.640162 1.29936 -7.70408
lowerneck -5.52281 -11.6916 -3.31012
upperneck -12.3265 -15.8007 19.14
head -0.841675 -8.9392 5.93494
rclavicle -2.70347e-014 -2.8625e-014
rhumerus -11.6966 15.2356 -73.3667
rradius 64.9778
rwrist 15.1842
rhand -29.2171 31.7968
rfingers 7.12502
rthumb -2.56134 1.83247
lclavicle -2.70347e-014 -2.8625e-014
lhumerus 16.278 -42.1962 31.5909
lradius 88.7364
lwrist -11.1423
lhand -14.9088 18.3252
lfingers 7.12502
lthumb 11.2527 48.0033
rfemur -50.3909 -9.57153 -6.987
rtibia 77.8243
rfoot 15.6322 -2.37795
rtoes -17.217
lfemur -57.1839 24.0567 6.24743
ltibia 65.8001
lfoot 27.0737 -2.8786
ltoes 16.3339
175
root 7.52366 10.2915 12.4303 151.365 -10.01 186.637
lowerback 35.247 9.24644 1.6531
upperback 15.6364 6.58146 -5.00147
thorax 0.212007 1.34436 -8.10248
lowerneck -5.24818 -11.8851 -2.71521
upperneck -11.8075 -16.1006 19.0468
head -0.762873 -9.07039 5.79806
rclavicle -3.18055e-015 9.85972e-014
rhumerus -12.3493 14.5633 -74.0023
rradius 65.0404
rwrist 14.9951
rhand -28.7742 30.7555
rfingers 7.12502
rthumb -2.13363 0.786425
lclavicle -3.18055e-015 9.85972e-014
lhumerus 17.154 -42.9492 30.3478
lradius 88.6406
lwrist -10.525
lhand -14.4862 18.2158
lfingers 7.12502
lthumb 11.6603 47.8714
rfemur -50.5395 -9.71844 -7.84473
rtibia 77.9596
rfoot 15.8893 -3.28452
rtoes -13.9105
lfemur -56.8075 23.8461 5.42131
ltibia 65.677
lfoot 27.0381 -3.39538
ltoes 13.9276
176
root 7.53106 10.2849 12.4462 151.036 -10.2888 185.934
lowerback 36.289 9.6255 2.48799
upperback 15.3525 7.14783 -5.9897
thorax -0.167498 1.68935 -9.83627
lowerneck -4.73429 -12.5205 -0.578232
upperneck -11.7199 -17.049 18.9936
head -0.925891 -9.64436 5.47265
rclavicle -7.63333e-014 3.02153e-013
rhumerus -13.7633 11.6954 -75.4292
rradius 65.1037
rwrist 15.5292
rhand -28.7769 30.222
rfingers 7.12502
rthumb -2.1362 0.252924
lclavicle -7.63333e-014 3.02153e-013
lhumerus 20.6244 -44.6992 26.8198
lradius 88.5676
lwrist -9.57414
lhand -14.2214 18.3582
lfingers 7.12502
lthumb 11.9157 47.9991
rfemur -50.3989 -9.71126 -8.63153
rtibia 78.1364
rfoot 15.9281 -4.7918
rtoes -8.64904
lfemur -56.242 23.608 4.80718
ltibia 65.5867
lfoot 26.9462 -3.2802
ltoes 14.101
177
root 7.53093 10.278 12.4599 150.702 -10.2015 186.184
lowerback 36.2345 9.60418 3.42643
upperback 15.5504 7.3669 -6.18543
thorax 0.246025 1.86783 -10.6035
lowerneck -4.65237 -12.7457 0.295113
upperneck -11.8242 -17.3809 18.7698
head -1.0454 -9.85105 5.29202
rclavicle -7.79236e-014 8.90555e-014
rhumerus -13.8979 10.3815 -75.8034
rradius 65.0432
rwrist 16.1971
rhand -29.1644 31.2782
rfingers 7.12502
rthumb -2.51045 1.31321
lclavicle -7.79236e-014 8.90555e-014
lhumerus 22.4362 -45.1009 25.3744
lradius 88.2429
lwrist -8.82907
lhand -15.1809 18.8066
lfingers 7.12502
lthumb 10.9902 48.4989
rfemur -50.3011 -9.60728 -8.31513
rtibia 78.3388
rfoot 16.3103 -5.03286
rtoes -7.30497
lfemur -55.9898 23.5408 5.15287
ltibia 65.5576
lfoot 26.8812 -2.04378
ltoes 18.1677
178
root 7.53402 10.266 12.4593 150.721 -9.96612 186.616
lowerback 35.0341 9.53066 3.93994
upperback 16.0891 7.43773 -6.06977
thorax 1.32262 1.97124 -10.6933
lowerneck -4.74369 -12.6434 0.465389
upperneck -12.0946 -17.2459 18.6994
head -1.14615 -9.81544 5.26634
rclavicle 2.70347e-014 3.49861e-014
rhumerus -13.164 10.0573 -75.6897
rradius 64.8897
rwrist 16.5123
rhand -29.6071 32.9662
rfingers 7.12502
rthumb -2.93798 3.00672
lclavicle 2.70347e-014 3.49861e-014
lhumerus 23.178 -44.5975 25.2048
lradius 87.6562
lwrist -8.64527
lhand -16.3135 19.1183
lfingers 7.12502
lthumb 9.8977 48.8657
rfemur -50.6844 -9.62236 -7.64222
rtibia 78.6274
rfoot 17.1305 -4.49894
rtoes -9.77837
lfemur -56.1673 23.7085 5.64641
ltibia 65.5688
lfoot 27.1086 -2.68506
ltoes 16.2846
179
root 7.53539 10.2585 12.461 150.68 -9.87917 186.816
lowerback 35.2672 9.43973 3.74722
upperback 15.6332 7.41935 -5.87274
thorax 0.68639 1.96057 -10.3894
lowerneck -4.55619 -12.6516 -0.0795395
upperneck -11.5094 -17.2327 18.5983
head -0.963094 -9.72069 5.28986
rclavicle -6.04305e-014 0
rhumerus -13.5826 10.4971 -75.5373
rradius 64.8886
rwrist 16.6594
rhand -30.0075 33.9176
rfingers 7.12502
rthumb -3.32472 3.96377
lclavicle -6.04305e-014 0
lhumerus 22.1822 -45.0071 26.2187
lradius 87.4375
lwrist -8.76994
lhand -16.5803 18.9542
lfingers 7.12502
lthumb 9.64034 48.7136
rfemur -50.9233 -9.74616 -7.30025
rtibia 78.9745
rfoot 17.6941 -2.71598
rtoes -15.4612
lfemur -56.2397 23.7421 5.86771
ltibia 65.5839
lfoot 27.2438 -2.32478
ltoes 17.7913
180
root 7.5362 10.2584 12.4754 150.289 -9.75186 187.241
lowerback 35.3452 9.13319 3.70318
upperback 15.5809 7.07164 -5.57091
thorax 0.498089 1.76813 -9.94351
lowerneck -4.6137 -12.4155 -0.791477
upperneck -11.0978 -16.9028 18.4735
head -0.808378 -9.47862 5.3385
rclavicle -8.90555e-014 -1.7175e-013
rhumerus -13.1766 11.6717 -75.2932
rradius 64.8529
rwrist 16.9418
rhand -30.2618 34.077
rfingers 7.12502
rthumb -3.57028 4.12713
lclavicle -8.90555e-014 -1.7175e-013
lhumerus 20.9972 -44.6142 27.2463
lradius 87.068
lwrist -8.43991
lhand -16.3355 18.654
lfingers 7.12502
lthumb 9.87645 48.4023
rfemur -50.8219 -9.79063 -6.78419
rtibia 79.3735
rfoot 17.8564 -2.12806
rtoes -16.0043
lfemur -55.9991 23.6307 6.38443
ltibia 65.5684
lfoot 27.2899 -2.10352
ltoes 18.7896
181
root 7.54597 10.2545 12.4876 149.982 -9.78047 187.171
lowerback 35.01 9.01106 2.88975
upperback 15.8286 6.64302 -5.20948
thorax 0.676503 1.46574 -8.97965
lowerneck -4.74674 -12.0627 -1.9444
upperneck -10.8072 -16.3878 18.4437
head -0.64883 -9.14075 5.48818
rclavicle -1.7175e-013 1.36764e-013
rhumerus -12.1874 13.4445 -74.6537
rradius 64.8194
rwrist 16.9146
rhand -30.4014 33.7107
rfingers 7.12502
rthumb -3.70513 3.76316
lclavicle -1.7175e-013 1.36764e-013
lhumerus 19.9887 -43.6614 28.5261
lradius 86.286
lwrist -8.02126
lhand -15.9594 18.8123
lfingers 7.12502
lthumb 10.2393 48.5431
rfemur -50.9311 -9.81094 -6.79766
rtibia 79.8186
rfoot 18.1082 -3.13073
rtoes -12.1819
lfemur -55.6602 23.545 6.41035
ltibia 65.5099
lfoot 27.22 -2.20272
ltoes 17.9277
182
root 7.55693 10.2459 12.4907 149.934 -10.1471 186.29
lowerback 34.482 9.0411 1.21062
upperback 16.125 6.10337 -5.07497
thorax 0.903953 1.04652 -7.77184
lowerneck -4.7835 -11.6649 -3.2978
upperneck -10.5881 -15.7915 18.5336
head -0.512066 -8.77026 5.72237
rclavicle 6.52014e-014 -6.36111e-014
rhumerus -10.9609 15.2642 -73.965
rradius 64.7454
rwrist 16.4242
rhand -30.1166 34.0289
rfingers 7.12502
rthumb -3.43002 4.07675
lclavicle 6.52014e-014 -6.36111e-014
lhumerus 18.2357 -42.5082 30.0538
lradius 85.9428
lwrist -8.08232
lhand -15.4962 19.2796
lfingers 7.12502
lthumb 10.6862 48.9879
rfemur -51.2105 -9.91421 -7.75231
rtibia 80.2819
rfoot 18.3437 -4.46793
rtoes -7.90159
lfemur -55.3674 23.4002 5.5223
ltibia 65.4637
lfoot 27.1275 -2.04137
ltoes 17.9324
183
root 7.56166 10.2469 12.4967 149.844 -10.3211 185.908
lowerback 33.8671 8.66418 0.458571
upperback 16.4715 5.33684 -5.21563
thorax 1.3361 0.59277 -7.28596
lowerneck -4.82629 -11.2023 -4.03125
upperneck -10.5799 -15.1373 18.3929
head -0.524324 -8.41168 5.82437
rclavicle 1.59028e-015 -2.54444e-014
rhumerus -9.50573 16.8711 -73.8633
rradius 64.5125
rwrist 16.51
rhand -30.2953 33.9478
rfingers 7.12502
rthumb -3.60263 3.99851
lclavicle 1.59028e-015 -2.54444e-014
lhumerus 16.467 -41.2051 30.9361
lradius 85.7641
lwrist -8.08855
lhand -15.4108 19.4784
lfingers 7.12502
lthumb 10.7685 49.1824
rfemur -51.3835 -10.0807 -8.12132
rtibia 80.7494
rfoot 18.3639 -4.98161
rtoes -5.89399
lfemur -55.1375 23.2706 5.14882
ltibia 65.4278
lfoot 27.059 -1.71596
ltoes 18.7304
